<svg width="149" height="88" viewBox="0 0 149 88" fill="none" xmlns="http://www.w3.org/2000/svg">
<path d="M131.326 67.8435H140.899C143.845 67.8435 146.545 65.3854 146.545 62.1898V56.5362C146.545 41.5418 134.272 29.2513 119.298 29.2513H104.57L94.5057 11.7988C91.0691 5.89935 84.9323 2.45801 78.0592 2.45801H65.5403C49.8302 2.45801 35.3475 10.5697 27.0015 23.8435L23.3195 29.2513H14.2371C7.60945 29.2513 2.45459 34.6591 2.45459 41.0502V62.1898C2.45459 65.1396 4.90929 67.8435 8.10039 67.8435H22.3376" stroke="#495161" stroke-width="2" stroke-linecap="round" stroke-linejoin="round"/>
<path d="M101.87 67.8438H51.5486" stroke="#495161" stroke-width="2" stroke-linecap="round" stroke-linejoin="round"/>
<path d="M23.3196 29.251H104.57" stroke="#495161" stroke-width="2" stroke-linecap="round" stroke-linejoin="round"/>
<path d="M65.2949 2.45801V29.2513" stroke="#495161" stroke-width="2" stroke-linecap="round" stroke-linejoin="round"/>
<path d="M36.8203 85.5416C45.09 85.5416 51.794 78.8283 51.794 70.5471C51.794 62.266 45.09 55.5527 36.8203 55.5527C28.5506 55.5527 21.8467 62.266 21.8467 70.5471C21.8467 78.8283 28.5506 85.5416 36.8203 85.5416Z" stroke="#495161" stroke-width="2" stroke-linecap="round" stroke-linejoin="round"/>
<path d="M36.8204 76.9384C40.3452 76.9384 43.2026 74.077 43.2026 70.5473C43.2026 67.0176 40.3452 64.1562 36.8204 64.1562C33.2956 64.1562 30.4382 67.0176 30.4382 70.5473C30.4382 74.077 33.2956 76.9384 36.8204 76.9384Z" stroke="#495161" stroke-width="2" stroke-linecap="round" stroke-linejoin="round"/>
<path d="M116.598 76.9384C120.123 76.9384 122.98 74.077 122.98 70.5473C122.98 67.0176 120.123 64.1562 116.598 64.1562C113.073 64.1562 110.216 67.0176 110.216 70.5473C110.216 74.077 113.073 76.9384 116.598 76.9384Z" stroke="#495161" stroke-width="2" stroke-linecap="round" stroke-linejoin="round"/>
<path d="M116.598 85.5416C124.868 85.5416 131.572 78.8283 131.572 70.5471C131.572 62.266 124.868 55.5527 116.598 55.5527C108.328 55.5527 101.624 62.266 101.624 70.5471C101.624 78.8283 108.328 85.5416 116.598 85.5416Z" stroke="#495161" stroke-width="2" stroke-linecap="round" stroke-linejoin="round"/>
<path d="M73.3955 39.5752H80.2687" stroke="#495161" stroke-width="2" stroke-linecap="round" stroke-linejoin="round"/>
</svg>
